<svg width="16" height="16" viewBox="0 0 16 16" fill="none" xmlns="http://www.w3.org/2000/svg">
<g id="Group">
<path id="Vector" d="M8 0C5.80893 0 3.8239 0.880805 2.37907 2.30793C2.37006 2.31662 2.36072 2.32563 2.35171 2.33497C2.33014 2.35622 2.30889 2.37779 2.28796 2.39936C2.2606 2.42704 2.23356 2.45473 2.20716 2.48306C2.18849 2.50237 2.17046 2.52169 2.15211 2.54101C1.52724 3.21642 1.05819 4.05247 0.690862 4.9101C0.276536 5.87654 0.207321 6.92089 0.207321 8.03895C0.207321 12.4571 3.58181 15.7708 8 15.7708C9.19662 15.7708 10.2706 15.6581 11.2898 15.1874C12.2093 14.7628 13.0913 14.2429 13.7861 13.5243C13.8118 13.4973 13.8376 13.4703 13.8627 13.4429C13.9094 13.393 13.9551 13.3425 14.0002 13.2913C14.0208 13.2678 14.0417 13.2439 14.062 13.2201L14.0687 13.2124L14.0694 13.2118C15.2728 11.812 16 9.99082 16 8C16 3.58181 12.4182 0 8 0ZM7.99098 10.7235L5.35533 7.88539L8.17609 5.06463L10.9128 7.80169L7.99098 10.7235Z" fill="#FFBF54"/>
<path id="Vector_2" d="M14.0694 13.2118C12.6023 14.9186 10.4274 16 8 16C3.58181 16 0 12.4182 0 8.00001C0 5.7716 0.911388 3.75598 2.38133 2.30536C1.17795 3.70544 0.450704 5.52628 0.450704 7.51711C0.450704 11.9353 4.03251 15.5171 8.4507 15.5171C10.6405 15.5171 12.6245 14.6373 14.0694 13.2118Z" fill="#FFA442"/>
<path id="Vector_3" d="M12.7462 3.25376C10.1293 0.636461 5.87075 0.636461 3.25376 3.25376C3.19743 3.3101 3.1427 3.36676 3.08894 3.42439C3.08894 3.42439 3.01071 3.52129 2.96821 3.56926C0.654167 6.19461 0.801933 10.1219 3.31686 12.6365C5.93384 15.2538 10.0826 15.3565 12.6996 12.7392C12.8541 12.585 13.0408 12.4272 13.177 12.2621C13.2072 12.2254 13.2716 12.1555 13.2716 12.1555C15.35 9.52338 15.1749 5.68209 12.7462 3.25376ZM7.99099 10.7235L5.35533 7.88539L8.1761 5.06463L10.9128 7.80169L7.99099 10.7235Z" fill="#FFA442"/>
<path id="Vector_4" d="M13.2881 12.1346C13.1219 12.3467 12.9413 12.5512 12.7462 12.7462C10.1293 15.3635 5.87075 15.3635 3.25377 12.7462C0.689259 10.1821 0.637428 6.04234 3.09827 3.41473C1.03727 6.0462 1.21787 9.87365 3.64008 12.2955C6.25707 14.9128 10.5156 14.9128 13.1326 12.2955C13.1854 12.2427 13.2375 12.189 13.2881 12.1346Z" fill="#FF8A3C"/>
<path id="Vector_5" d="M11.5741 7.47654L8.52346 4.42591C8.23436 4.13682 7.76563 4.13682 7.47654 4.42591L4.42591 7.47654C4.13682 7.76563 4.13682 8.23436 4.42591 8.52346L7.47654 11.5741C7.76563 11.8632 8.23436 11.8632 8.52346 11.5741L11.5741 8.52346C11.8632 8.23436 11.8632 7.76563 11.5741 7.47654ZM10.231 8.04539L8.04539 10.231C8.02028 10.2561 7.97972 10.2561 7.9546 10.231L5.76901 8.04539C5.7439 8.02028 5.7439 7.97972 5.76901 7.9546L7.9546 5.76901C7.97972 5.7439 8.02028 5.7439 8.04539 5.76901L10.231 7.9546C10.2561 7.97972 10.2561 8.02028 10.231 8.04539Z" fill="#FFBF54"/>
<g id="Group_2">
<g id="Group_3">
<g id="Group_4">
<path id="Vector_6" d="M4.53805 5.90388C4.34946 6.09247 4.04373 6.09247 3.85514 5.90388L3.30109 5.34984C3.11251 5.16125 3.11251 4.85551 3.30109 4.66692C3.48968 4.47834 3.79542 4.47834 3.98401 4.66692L4.53805 5.22097C4.72661 5.40955 4.72661 5.71529 4.53805 5.90388Z" fill="#FFBF54"/>
</g>
<g id="Group_5">
<path id="Vector_7" d="M5.90388 4.53805C5.71529 4.72664 5.40955 4.72664 5.22097 4.53805L4.66692 3.98401C4.47834 3.79542 4.47834 3.48968 4.66692 3.30109C4.85551 3.11251 5.16125 3.11251 5.34984 3.30109L5.90388 3.85514C6.09247 4.04369 6.09247 4.34946 5.90388 4.53805Z" fill="#FFBF54"/>
</g>
</g>
<g id="Group_6">
<g id="Group_7">
<path id="Vector_8" d="M5.90388 11.462C6.09247 11.6505 6.09247 11.9563 5.90388 12.1449L5.34984 12.6989C5.16125 12.8875 4.85551 12.8875 4.66692 12.6989C4.47834 12.5103 4.47834 12.2046 4.66692 12.016L5.22097 11.462C5.40955 11.2734 5.71529 11.2734 5.90388 11.462Z" fill="#FFBF54"/>
</g>
<g id="Group_8">
<path id="Vector_9" d="M4.53805 10.0961C4.72664 10.2847 4.72664 10.5905 4.53805 10.7791L3.98401 11.3331C3.79542 11.5217 3.48968 11.5217 3.30109 11.3331C3.11251 11.1445 3.11251 10.8388 3.30109 10.6502L3.85514 10.0961C4.04369 9.90755 4.34946 9.90755 4.53805 10.0961Z" fill="#FFBF54"/>
</g>
</g>
<g id="Group_9">
<g id="Group_10">
<path id="Vector_10" d="M11.462 10.0961C11.6505 9.90755 11.9563 9.90755 12.1449 10.0961L12.6989 10.6502C12.8875 10.8388 12.8875 11.1445 12.6989 11.3331C12.5103 11.5217 12.2046 11.5217 12.016 11.3331L11.462 10.7791C11.2734 10.5905 11.2734 10.2847 11.462 10.0961Z" fill="#FFBF54"/>
</g>
<g id="Group_11">
<path id="Vector_11" d="M10.0961 11.462C10.2847 11.2734 10.5905 11.2734 10.7791 11.462L11.3331 12.016C11.5217 12.2046 11.5217 12.5103 11.3331 12.6989C11.1445 12.8875 10.8388 12.8875 10.6502 12.6989L10.0961 12.1449C9.90755 11.9563 9.90755 11.6506 10.0961 11.462Z" fill="#FFBF54"/>
</g>
</g>
<g id="Group_12">
<g id="Group_13">
<path id="Vector_12" d="M10.0961 4.53805C9.90755 4.34946 9.90755 4.04373 10.0961 3.85514L10.6502 3.30109C10.8388 3.11251 11.1445 3.11251 11.3331 3.30109C11.5217 3.48968 11.5217 3.79542 11.3331 3.98401L10.7791 4.53805C10.5905 4.72661 10.2847 4.72661 10.0961 4.53805Z" fill="#FFBF54"/>
</g>
<g id="Group_14">
<path id="Vector_13" d="M11.462 5.90388C11.2734 5.71529 11.2734 5.40955 11.462 5.22097L12.016 4.66692C12.2046 4.47834 12.5103 4.47834 12.6989 4.66692C12.8875 4.85551 12.8875 5.16125 12.6989 5.34984L12.1449 5.90388C11.9563 6.09247 11.6506 6.09247 11.462 5.90388Z" fill="#FFBF54"/>
</g>
</g>
</g>
</g>
</svg>